<svg width="208" height="42" viewBox="0 0 208 42" fill="none" xmlns="http://www.w3.org/2000/svg">
<path d="M202.961 13.7966C202.961 11.7677 201.994 9.61778 199.173 9.61778C196.11 9.61784 195.626 14.6069 194.578 14.8517V11.8895C194.578 10.226 194.094 9.61786 192.522 9.61778C190.708 9.61778 188.853 10.4693 187.684 10.9562C186.757 11.3214 186.113 11.8092 186.113 12.6612C186.113 13.7971 186.677 14.5278 186.677 17.8139V21.9124C186.677 25.2399 186.113 26.2954 186.113 27.4317C186.113 28.2837 186.677 28.8116 187.684 28.8117H193.611L193.788 28.8048C194.593 28.7476 195.11 28.2967 195.175 27.5872L195.182 27.4317C195.182 26.2954 194.578 25.2399 194.578 21.9124V18.545C198.367 18.545 202.961 17.8949 202.961 13.7966ZM47.6176 9.61778C46.4486 9.61778 46.3277 10.3884 46.6502 11.2406C47.0533 12.3767 48.3427 13.1481 49.1892 16.5161C49.1954 16.5407 49.837 19.0836 50.3986 21.3854C51.7691 27.1069 54.3892 28.8116 59.2663 28.8117C58.6214 29.6637 57.7346 30.1908 56.4046 30.1908C54.3893 30.1907 53.0188 28.8118 50.6811 28.8117C46.4354 28.8117 45.1581 36.6761 51.425 36.9216L51.7291 36.9276C61.5642 36.9274 68.2145 24.4292 68.2147 15.7047C68.2147 11.8916 66.9669 9.75374 63.6643 9.62372L63.3376 9.61778C59.589 9.61791 58.1783 12.458 59.5891 16.313C60.3549 18.3823 60.9597 21.1008 60.8389 22.8863C60.5656 23.9869 59.3085 24.2504 58.9002 22.9012L58.8638 22.7654L57.3316 16.5161C56.4851 13.0668 58.0174 12.2142 57.8965 10.9968C57.8158 9.98254 57.09 9.61783 55.8407 9.61778H47.6176ZM78.6668 9.29282C73.1043 9.29282 69.436 12.2955 69.436 19.1939C69.436 26.133 73.1041 29.1356 78.4651 29.1357C85.2773 29.1357 87.011 25.6461 87.011 23.2925C87.011 20.9796 85.8016 19.3972 83.9879 19.397C81.65 19.397 80.8027 21.7103 79.15 21.7103C75.684 21.7097 76.1278 14.0403 77.9416 14.0403C79.4729 14.0409 79.1507 18.0981 82.496 18.0982C84.2696 18.0982 85.9226 16.9214 85.9226 14.0403C85.9225 10.51 82.6573 9.29284 78.6668 9.29282ZM97.1758 9.25221C91.5326 9.25221 87.6625 12.2549 87.6625 19.1939C87.6625 26.133 91.5326 29.1357 97.1758 29.1357C102.819 29.1355 106.648 26.1329 106.648 19.1939C106.648 12.2551 102.819 9.25234 97.1758 9.25221ZM176.487 9.29282C170.925 9.29282 167.256 12.2549 167.256 19.1939C167.256 26.133 170.924 29.1357 176.285 29.1357C183.098 29.1357 184.831 25.6055 184.831 23.2519C184.831 20.9796 183.622 19.3567 181.808 19.3564C179.47 19.3564 178.623 21.7103 176.97 21.7103C175.278 21.7101 174.472 20.3708 174.351 18.5044H181.647C183.34 18.5043 184.065 17.4897 184.065 16.3536C184.065 12.9855 181.203 9.29289 176.487 9.29282ZM145.978 9.61778C141.827 9.61791 139.086 12.6603 138.602 13.2289V11.8895C138.602 10.2261 138.118 9.61787 136.547 9.61778C134.733 9.61778 132.878 10.4693 131.709 10.9562C130.782 11.3214 130.137 11.8092 130.137 12.6612C130.137 13.7971 130.701 14.5278 130.701 17.8139V21.9124C130.701 25.2399 130.137 26.2954 130.137 27.4317C130.137 28.2837 130.701 28.8116 131.709 28.8117H137.635C138.602 28.8116 139.207 28.2837 139.207 27.4317C139.207 26.3665 138.675 25.3726 138.608 22.5108L138.602 21.9124V16.9619C138.885 16.6368 139.933 15.5829 141.141 15.5828C142.23 15.5828 142.674 16.3128 142.674 17.9764V21.9124L142.667 22.5108C142.605 25.3726 142.109 26.3665 142.109 27.4317C142.109 28.2838 142.674 28.8117 143.681 28.8117H149.607L149.784 28.8048C150.647 28.7436 151.178 28.2304 151.178 27.4317C151.178 26.2954 150.574 25.2399 150.574 21.9124V15.0954C150.574 11.8326 149.552 9.7506 146.3 9.62372L145.978 9.61778ZM159.884 5.07242C158.03 5.07261 151.944 8.64347 151.944 11.1593C151.984 12.1332 152.468 12.6612 153.355 12.6612H157.023C153.96 16.3539 153.798 21.1013 154.04 23.2925C154.391 27.0665 156.407 28.708 159.831 28.8068L160.167 28.8117C162.988 28.8117 166.011 27.3912 166.011 24.835C166.011 21.7687 162.191 22.7007 161.952 19.7735L161.94 19.4783V12.6612H164.6C165.527 12.6612 166.011 11.9709 166.011 11.1593C166.011 10.3071 165.245 9.61778 164.6 9.61778H161.94V7.30448C161.94 5.6813 161.416 5.07242 159.884 5.07242ZM36.4362 9.57716C33.655 9.57716 28.0921 9.9825 27.971 14.0403C27.9307 15.5823 29.14 16.8806 30.9135 16.8806C33.8157 16.8806 34.0178 14.3246 35.4689 14.3246C36.4359 14.3248 36.7987 15.1362 37.0405 16.7994C32.6065 16.2313 26.9633 17.8145 26.9633 23.4956C26.9634 26.483 28.8169 28.6326 32.0107 28.7642L32.3247 28.7711C34.7834 28.771 36.9596 26.9441 37.7658 23.9008C37.8464 25.6862 37.5642 26.4983 37.6851 27.391C37.7657 28.2432 38.4113 28.7711 39.419 28.7711H45.3846C46.3922 28.771 46.9158 28.2431 46.7949 27.391C46.6739 26.2548 45.9492 25.1993 45.5864 21.8718L44.8601 15.7443C44.4569 12.0519 42.482 9.57725 36.4362 9.57716ZM94.9183 19.1939C94.9183 16.4752 95.7247 14.0403 97.1758 14.0403C98.6266 14.0407 99.4323 16.4754 99.4323 19.1939C99.4323 21.9125 98.6266 24.3878 97.1758 24.3882C95.8153 24.3882 95.021 22.2125 94.9271 19.7002L94.9183 19.1939ZM14.0677 9.81988C15.6397 9.81988 17.2521 12.5389 17.2522 16.9213C17.2522 21.3038 15.6397 24.0633 14.0677 24.0633V9.81988ZM115.434 4.54536C116.025 4.54539 116.677 4.61708 117.343 4.79997C118.041 4.60803 118.707 4.54536 119.263 4.54536H125.228V9.61778H119.263C118.255 9.61778 117.731 10.1448 117.852 10.9968C117.973 12.1331 118.658 13.1886 119.061 16.5161L119.665 21.6697C119.302 22.0756 118.537 22.8457 117.811 22.8457C116.925 22.8456 116.401 22.0752 116.401 20.7365V16.5161C116.401 13.1886 117.005 12.1331 117.005 10.9968C117.005 10.1449 116.401 9.61793 115.434 9.61778H109.508V4.54536H115.434ZM34.2191 21.2635C34.2191 19.681 35.7509 19.4377 37.3633 19.5189L37.444 20.4115C36.4362 22.4811 34.2191 22.6432 34.2191 21.2635ZM176.528 14.0403C177.495 14.0404 178.18 14.9329 178.382 15.7849H174.552C174.754 14.9329 175.52 14.0403 176.528 14.0403ZM208 13.7966C208 15.846 207.4 17.7718 206.169 19.3733C204.99 20.906 203.475 21.8302 202.114 22.3959C201.315 22.7281 200.483 22.97 199.655 23.1479C199.697 23.7673 199.769 24.2154 199.834 24.5705C199.863 24.729 199.893 24.8795 199.928 25.055C199.961 25.2155 200.005 25.43 200.044 25.6415C200.122 26.0715 200.221 26.6979 200.221 27.4317C200.221 29.1439 199.567 30.9527 198.067 32.2673C196.648 33.5103 194.966 33.8841 193.611 33.8841H187.684C186.523 33.8841 185.064 33.6158 183.747 32.6874C181.652 33.7057 179.139 34.2081 176.285 34.2081C173.269 34.2081 170.159 33.4878 167.579 31.5589C167.305 31.7664 167.029 31.9554 166.754 32.1227C164.721 33.3602 162.32 33.8841 160.167 33.8841C158.155 33.8841 155.943 33.5223 153.966 32.3466C152.568 33.5246 150.932 33.8841 149.607 33.8841H143.681C142.781 33.8841 141.702 33.7221 140.648 33.2174C139.616 33.7118 138.551 33.8841 137.635 33.8841H131.709C131.063 33.8841 130.326 33.8001 129.571 33.5671C128.798 33.8065 128.056 33.8841 127.446 33.8841H121.48C120.473 33.8841 119.324 33.6844 118.228 33.1213C117.001 33.5878 115.568 33.8841 113.902 33.8841C111.289 33.8841 108.658 33.1195 106.621 31.2132C103.867 33.4151 100.466 34.208 97.1758 34.2081C93.9921 34.2081 90.7 33.4668 87.9892 31.4292C85.5652 33.2996 82.3237 34.2081 78.4651 34.2081C75.0886 34.2081 71.5961 33.3061 68.8593 30.8169C68.5243 31.3811 68.1744 31.934 67.8063 32.4704C64.4017 37.4325 58.9345 41.9999 51.7291 42C49.0228 42 46.4624 41.1407 44.5816 39.2201C43.035 37.6407 42.2971 35.6941 42.1165 33.8435H39.419C38.4106 33.8435 37.2598 33.6436 36.1617 33.0787C34.9966 33.5672 33.7116 33.8435 32.3247 33.8435C29.65 33.8435 27.0578 32.991 25.0719 31.126C22.6329 32.9554 19.5029 33.8841 15.841 33.8841H6.61019C5.27916 33.8841 3.556 33.5326 2.104 32.2366C0.668723 30.9552 0.0754948 29.2658 0.00688869 27.7358L0 27.4317L0.00393639 27.1612C0.0235993 26.5456 0.107561 26.0324 0.186979 25.6345C0.227825 25.4299 0.273319 25.2278 0.302118 25.0995C0.334936 24.9534 0.359716 24.8436 0.382814 24.729C0.454869 24.3715 0.563884 23.7357 0.563888 22.3999C0.563888 20.6765 0.846186 18.7352 1.68773 16.9401C0.844497 15.1449 0.563923 13.2021 0.563888 11.4843C0.563888 10.1486 0.454872 9.51267 0.382814 9.15512C0.359704 9.04045 0.334955 8.93083 0.302118 8.78459C0.273319 8.65634 0.227871 8.45347 0.186979 8.24862C0.107564 7.85071 0.0235568 7.33757 0.00393639 6.72194L0 6.45247L0.00688869 6.15427C0.0719953 4.64783 0.639952 2.91149 2.14435 1.59702C3.63579 0.29388 5.37488 6.85498e-05 6.61019 0V5.07242C5.60274 5.07256 5.03858 5.55985 5.03858 6.45247C5.0387 7.58845 5.60247 8.15711 5.60247 11.4843L5.61526 11.9965C5.73903 14.5297 6.79713 16.6169 8.98875 16.9213C6.65087 17.2865 5.60247 19.6405 5.60247 22.3999L5.59657 22.9923C5.53456 25.8005 5.03858 26.3665 5.03858 27.4317C5.0386 28.2306 5.53469 28.7438 6.42715 28.8048L6.61019 28.8117H15.841C23.8625 28.8117 25.7165 23.2111 25.7165 16.9213C25.7164 10.6722 23.8623 5.07242 15.841 5.07242H6.61019V0H15.841C21.1723 0 25.3754 1.96539 27.9602 5.81049C28.0228 5.90358 28.0833 5.99769 28.1432 6.09185C28.6365 5.84591 29.1172 5.64634 29.5633 5.49148C32.1466 4.59472 34.9341 4.50474 36.4362 4.50474C39.0219 4.50477 41.486 4.87587 43.6231 5.87885C44.9384 4.82908 46.5285 4.54536 47.6176 4.54536H55.8407C56.6649 4.54538 58.0149 4.62583 59.3726 5.28938C60.6318 4.77738 61.9946 4.54539 63.3376 4.54536C65.6411 4.54536 68.0135 5.15079 69.8946 6.79625C72.4997 4.91223 75.6267 4.22041 78.6668 4.22041C81.0218 4.22042 83.8502 4.55475 86.2641 5.92343C86.8374 6.24853 87.3729 6.62688 87.8633 7.05383C90.5976 4.94372 93.9428 4.17979 97.1758 4.17979C99.876 4.17984 102.652 4.71394 105.083 6.12256C106.518 4.88443 108.201 4.54543 109.508 4.54536V9.61778L109.324 9.62372C108.432 9.68472 107.936 10.198 107.936 10.9968C107.936 12.1331 108.5 13.1886 108.5 16.5161V23.3331C108.5 26.596 110.278 28.6779 113.578 28.8048L113.902 28.8117C118.094 28.8117 119.625 25.6865 119.827 25.159C119.786 26.1735 119.665 26.7824 119.746 27.4317C119.827 28.2838 120.472 28.8117 121.48 28.8117H127.446C128.453 28.8116 128.977 28.2837 128.856 27.4317C128.735 26.2954 128.009 25.2399 127.646 21.9124L127.002 16.5161C126.639 13.1886 127.082 12.1331 126.961 10.9968C126.848 10.198 126.274 9.68471 125.406 9.62372L125.228 9.61778V4.54536C126.616 4.54539 128.193 4.93116 129.552 6.02052C129.645 6.09559 129.736 6.17248 129.824 6.25136C130.688 5.88616 133.554 4.54536 136.547 4.54536C137.477 4.54539 139.109 4.65886 140.628 5.6391C142.151 4.99597 143.944 4.5454 145.978 4.54536C147.243 4.54536 148.525 4.72828 149.73 5.16752C150.566 4.32444 151.5 3.58856 152.375 2.98599C153.485 2.2215 154.682 1.54464 155.805 1.03925C156.707 0.633596 158.276 4.03412e-05 159.884 0C161.113 0 163.435 0.207019 165.206 2.15677C166.008 3.04036 166.447 4.01949 166.689 4.91787C167.494 5.21335 168.182 5.65378 168.73 6.12653C171.117 4.73978 173.841 4.22041 176.487 4.22041C179.641 4.22044 182.348 5.26648 184.437 6.92107C184.929 6.62665 185.391 6.41728 185.758 6.26919L186.729 5.85805C188.032 5.32558 190.24 4.54536 192.522 4.54536C193.318 4.54538 194.627 4.63047 195.941 5.26858C196.87 4.82742 197.95 4.54537 199.173 4.54536C202.026 4.54536 204.518 5.72201 206.144 7.88602C207.606 9.83116 208 12.0774 208 13.7966Z" fill="white"/>
</svg>
