<svg width="210" height="53" viewBox="0 0 210 53" fill="none" xmlns="http://www.w3.org/2000/svg">
<mask id="path-1-outside-1_38_494" maskUnits="userSpaceOnUse" x="1" y="8" width="208" height="42" fill="black">
<rect fill="white" x="1" y="8" width="208" height="42"/>
<path d="M17.36 13.6C25.32 13.6 27.16 19.12 27.16 25.28C27.16 31.48 25.32 37 17.36 37H8.2C7.2 37 6.64 36.48 6.64 35.64C6.64 34.52 7.2 33.96 7.2 30.68C7.2 27.96 8.24 25.64 10.56 25.28C8.24 24.96 7.2 22.64 7.2 19.92C7.2 16.64 6.64 16.08 6.64 14.96C6.64 14.08 7.2 13.6 8.2 13.6H17.36ZM15.6 32.32C17.16 32.32 18.76 29.6 18.76 25.28C18.76 20.96 17.16 18.28 15.6 18.28V32.32ZM46.8769 30.16C47.2369 33.44 47.9569 34.48 48.0769 35.6C48.1969 36.44 47.6769 36.96 46.6769 36.96H40.7569C39.7569 36.96 39.1169 36.44 39.0369 35.6C38.9169 34.72 39.1969 33.92 39.1169 32.16C38.3169 35.16 36.1569 36.96 33.7169 36.96C30.3569 36.96 28.3969 34.8 28.3969 31.76C28.3969 26.16 33.9969 24.6 38.3969 25.16C38.1569 23.52 37.7969 22.72 36.8369 22.72C35.3969 22.72 35.1969 25.24 32.3169 25.24C30.5569 25.24 29.3569 23.96 29.3969 22.44C29.5169 18.44 35.0369 18.04 37.7969 18.04C43.7969 18.04 45.7569 20.48 46.1569 24.12L46.8769 30.16ZM35.5969 29.56C35.5969 30.92 37.7969 30.76 38.7969 28.72L38.7169 27.84C37.1169 27.76 35.5969 28 35.5969 29.56ZM64.4928 18.08C68.0128 18.08 69.3328 20.2 69.3328 24.08C69.3328 32.68 62.7328 45 52.9728 45C46.4128 45 47.6528 37 51.9328 37C54.2528 37 55.6128 38.36 57.6128 38.36C58.9328 38.36 59.8128 37.84 60.4528 37C55.6128 37 53.0128 35.32 51.6528 29.68C51.0928 27.4 50.4528 24.88 50.4528 24.88C49.6128 21.56 48.3328 20.8 47.9328 19.68C47.6128 18.84 47.7328 18.08 48.8928 18.08H57.0528C58.2928 18.08 59.0128 18.44 59.0928 19.44C59.2128 20.64 57.6928 21.48 58.5328 24.88L60.0528 31.04C60.4128 32.52 61.7328 32.28 62.0128 31.16C62.1328 29.4 61.5328 26.72 60.7728 24.68C59.3728 20.88 60.7728 18.08 64.4928 18.08ZM84.9844 27.72C86.7844 27.72 87.9844 29.28 87.9844 31.56C87.9844 33.88 86.2644 37.32 79.5044 37.32C74.1844 37.32 70.5444 34.36 70.5444 27.52C70.5444 20.72 74.1844 17.76 79.7044 17.76C83.6644 17.76 86.9044 18.96 86.9044 22.44C86.9044 25.28 85.2644 26.44 83.5044 26.44C80.1844 26.44 80.5044 22.44 78.9844 22.44C77.1844 22.44 76.7444 30 80.1844 30C81.8244 30 82.6644 27.72 84.9844 27.72ZM98.0713 17.72C103.671 17.72 107.471 20.68 107.471 27.52C107.471 34.36 103.671 37.32 98.0713 37.32C92.4713 37.32 88.6313 34.36 88.6313 27.52C88.6313 20.68 92.4713 17.72 98.0713 17.72ZM98.0713 32.64C99.5113 32.64 100.311 30.2 100.311 27.52C100.311 24.84 99.5113 22.44 98.0713 22.44C96.6313 22.44 95.8313 24.84 95.8313 27.52C95.8313 30.2 96.6313 32.64 98.0713 32.64ZM122.189 37C121.189 37 120.549 36.48 120.469 35.64C120.389 35 120.509 34.4 120.549 33.4C120.349 33.92 118.829 37 114.669 37C111.189 37 109.309 34.92 109.309 31.6V24.88C109.309 21.6 108.749 20.56 108.749 19.44C108.749 18.6 109.309 18.08 110.309 18.08H116.189C117.149 18.08 117.749 18.6 117.749 19.44C117.749 20.56 117.149 21.6 117.149 24.88V29.04C117.149 30.36 117.669 31.12 118.549 31.12C119.269 31.12 120.029 30.36 120.389 29.96L119.789 24.88C119.389 21.6 118.709 20.56 118.589 19.44C118.469 18.6 118.989 18.08 119.989 18.08H125.909C126.869 18.08 127.509 18.6 127.629 19.44C127.749 20.56 127.309 21.6 127.669 24.88L128.309 30.2C128.669 33.48 129.389 34.52 129.509 35.64C129.629 36.48 129.109 37 128.109 37H122.189ZM151.061 23.48V30.2C151.061 33.48 151.661 34.52 151.661 35.64C151.661 36.48 151.061 37 150.101 37H144.221C143.221 37 142.661 36.48 142.661 35.64C142.661 34.52 143.221 33.48 143.221 30.2V26.32C143.221 24.68 142.781 23.96 141.701 23.96C140.501 23.96 139.461 25 139.181 25.32V30.2C139.181 33.48 139.781 34.52 139.781 35.64C139.781 36.48 139.181 37 138.221 37H132.341C131.341 37 130.781 36.48 130.781 35.64C130.781 34.52 131.341 33.48 131.341 30.2V26.16C131.341 22.92 130.781 22.2 130.781 21.08C130.781 20.24 131.421 19.76 132.341 19.4C133.501 18.92 135.341 18.08 137.141 18.08C138.701 18.08 139.181 18.68 139.181 20.32V21.64C139.661 21.08 142.381 18.08 146.501 18.08C149.981 18.08 151.061 20.16 151.061 23.48ZM162.34 21.08V27.8C162.34 31.04 166.38 29.96 166.38 33.08C166.38 35.6 163.38 37 160.58 37C156.98 37 154.86 35.4 154.5 31.56C154.26 29.4 154.42 24.72 157.46 21.08H153.82C152.94 21.08 152.46 20.56 152.42 19.6C152.42 17.12 158.46 13.6 160.3 13.6C161.82 13.6 162.34 14.2 162.34 15.8V18.08H164.98C165.62 18.08 166.38 18.76 166.38 19.6C166.38 20.4 165.9 21.08 164.98 21.08H162.34ZM182.056 27.68C183.856 27.68 185.056 29.28 185.056 31.52C185.056 33.84 183.336 37.32 176.576 37.32C171.256 37.32 167.616 34.36 167.616 27.52C167.616 20.68 171.256 17.76 176.776 17.76C181.456 17.76 184.296 21.4 184.296 24.72C184.296 25.84 183.576 26.84 181.896 26.84H174.656C174.776 28.68 175.576 30 177.256 30C178.896 30 179.736 27.68 182.056 27.68ZM176.816 22.44C175.816 22.44 175.056 23.32 174.856 24.16H178.656C178.456 23.32 177.776 22.44 176.816 22.44ZM199.288 18.08C202.088 18.08 203.048 20.2 203.048 22.2C203.048 26.24 198.488 26.88 194.728 26.88V30.2C194.728 33.48 195.328 34.52 195.328 35.64C195.328 36.48 194.728 37 193.768 37H187.888C186.888 37 186.328 36.48 186.328 35.64C186.328 34.52 186.888 33.48 186.888 30.2V26.16C186.888 22.92 186.328 22.2 186.328 21.08C186.328 20.24 186.968 19.76 187.888 19.4C189.048 18.92 190.888 18.08 192.688 18.08C194.248 18.08 194.728 18.68 194.728 20.32V23.24C195.768 23 196.247 18.08 199.288 18.08Z"/>
</mask>
<path d="M10.56 25.28L11.3267 30.2209L11.2432 20.3269L10.56 25.28ZM15.6 32.32H10.6V37.32H15.6V32.32ZM15.6 18.28V13.28H10.6V18.28H15.6ZM17.36 18.6C20.0296 18.6 20.7591 19.4225 21.1041 19.9323C21.7103 20.8281 22.16 22.5148 22.16 25.28H32.16C32.16 21.8852 31.6897 17.7319 29.3859 14.3277C26.8209 10.5375 22.6504 8.6 17.36 8.6V18.6ZM22.16 25.28C22.16 28.0697 21.709 29.7668 21.1011 30.6671C20.756 31.1782 20.029 32 17.36 32V42C22.651 42 26.824 40.0618 29.3889 36.2629C31.691 32.8532 32.16 28.6903 32.16 25.28H22.16ZM17.36 32H8.2V42H17.36V32ZM8.2 32C8.52102 32 9.45132 32.0861 10.3624 32.8941C11.3518 33.7714 11.64 34.8961 11.64 35.64H1.64C1.64 37.2239 2.20817 39.0286 3.72756 40.3759C5.16868 41.6539 6.87898 42 8.2 42V32ZM11.64 35.64C11.64 35.8063 11.6146 35.9131 11.6295 35.8388C11.6414 35.7796 11.6571 35.7096 11.6941 35.5457C11.7272 35.3995 11.7731 35.1962 11.8202 34.9642C12.0286 33.9367 12.2 32.6432 12.2 30.68H2.2C2.2 31.9968 2.09135 32.6233 2.01985 32.9758C1.99691 33.0888 1.97282 33.1967 1.94024 33.3408C1.91166 33.4673 1.86609 33.6667 1.8255 33.8687C1.73542 34.3169 1.64 34.9137 1.64 35.64H11.64ZM12.2 30.68C12.2 30.3112 12.2359 30.0223 12.2811 29.8176C12.3271 29.6094 12.3707 29.5416 12.354 29.5708C12.3326 29.6084 12.234 29.7632 12.0123 29.9257C11.7763 30.0987 11.5223 30.1905 11.3267 30.2209L9.79331 20.3391C6.92048 20.7849 4.86029 22.5237 3.66602 24.6192C2.55505 26.5684 2.2 28.7616 2.2 30.68H12.2ZM11.2432 20.3269C11.452 20.3557 11.7238 20.4495 11.9771 20.6319C12.2151 20.8032 12.3228 20.9697 12.3484 21.0144C12.3692 21.0506 12.3267 20.9878 12.2809 20.7807C12.236 20.5775 12.2 20.289 12.2 19.92H2.2C2.2 21.8351 2.55383 24.0346 3.67157 25.9856C4.87741 28.0903 6.96741 29.8318 9.87681 30.2331L11.2432 20.3269ZM12.2 19.92C12.2 17.9568 12.0286 16.6633 11.8202 15.6358C11.7731 15.4038 11.7272 15.2004 11.6941 15.0543C11.6571 14.8904 11.6414 14.8204 11.6295 14.7612C11.6146 14.6869 11.64 14.7937 11.64 14.96H1.64C1.64 15.6863 1.73542 16.2831 1.8255 16.7313C1.86609 16.9333 1.91166 17.1327 1.94024 17.2592C1.97282 17.4033 1.99691 17.5112 2.01985 17.6242C2.09135 17.9767 2.2 18.6032 2.2 19.92H12.2ZM11.64 14.96C11.64 15.6286 11.3847 16.8041 10.3224 17.7261C9.37218 18.5508 8.42589 18.6 8.2 18.6V8.6C6.97411 8.6 5.24782 8.88921 3.76763 10.1739C2.17528 11.5559 1.64 13.4114 1.64 14.96H11.64ZM8.2 18.6H17.36V8.6H8.2V18.6ZM15.6 37.32C19.379 37.32 21.4422 34.2866 22.259 32.6118C23.2642 30.5506 23.76 28.001 23.76 25.28H13.76C13.76 26.879 13.4558 27.8494 13.271 28.2282C13.1769 28.4211 13.1963 28.2942 13.4634 28.0611C13.741 27.8187 14.4712 27.32 15.6 27.32V37.32ZM23.76 25.28C23.76 22.5595 23.2644 20.0127 22.2519 17.9536C21.4179 16.2577 19.3474 13.28 15.6 13.28V23.28C14.4935 23.28 13.7702 22.7976 13.4853 22.5517C13.2127 22.3165 13.1882 22.1834 13.2781 22.3664C13.4556 22.7273 13.76 23.6805 13.76 25.28H23.76ZM10.6 18.28V32.32H20.6V18.28H10.6ZM46.8769 30.16L51.847 29.6145L51.8445 29.5913L51.8417 29.5682L46.8769 30.16ZM48.0769 35.6L43.1053 36.1327L43.1147 36.2201L43.1271 36.3071L48.0769 35.6ZM39.0369 35.6L44.0144 35.126L44.0047 35.025L43.991 34.9244L39.0369 35.6ZM39.1169 32.16L44.1117 31.933L34.2857 30.8717L39.1169 32.16ZM38.3969 25.16L37.7656 30.12L44.2976 30.9513L43.3442 24.436L38.3969 25.16ZM29.3969 22.44L24.3991 22.2901L24.3988 22.2993L24.3986 22.3085L29.3969 22.44ZM46.1569 24.12L41.1868 24.6662L41.1893 24.689L41.192 24.7118L46.1569 24.12ZM38.7969 28.72L43.2865 30.9208L43.9032 29.6627L43.7763 28.2673L38.7969 28.72ZM38.7169 27.84L43.6963 27.3873L43.3032 23.0631L38.9666 22.8462L38.7169 27.84ZM41.9067 30.7055C42.1239 32.6842 42.4613 34.0587 42.7729 35.1104C42.8455 35.3556 42.9145 35.5757 42.9687 35.7484C43.0273 35.935 43.0628 36.0483 43.0922 36.1485C43.1505 36.3468 43.1222 36.2904 43.1053 36.1327L53.0484 35.0673C52.9715 34.3496 52.8082 33.7432 52.6865 33.329C52.626 33.123 52.5602 32.9144 52.51 32.7544C52.4555 32.5805 52.4082 32.4294 52.3609 32.2696C52.1925 31.7013 51.9899 30.9158 51.847 29.6145L41.9067 30.7055ZM43.1271 36.3071C43.017 35.5364 43.1487 34.1485 44.2988 33.0224C45.3166 32.0258 46.4048 31.96 46.6769 31.96V41.96C47.9489 41.96 49.7971 41.6342 51.295 40.1676C52.925 38.5715 53.2567 36.5036 53.0266 34.8929L43.1271 36.3071ZM46.6769 31.96H40.7569V41.96H46.6769V31.96ZM40.7569 31.96C41.0986 31.96 41.874 32.0523 42.6673 32.6842C43.5255 33.3679 43.9373 34.3168 44.0144 35.126L34.0594 36.074C34.2165 37.7232 34.9883 39.3521 36.4365 40.5058C37.8197 41.6077 39.4152 41.96 40.7569 41.96V31.96ZM43.991 34.9244C44.0208 35.1427 43.9856 35.32 44.044 34.633C44.0947 34.035 44.1666 33.1398 44.1117 31.933L34.122 32.387C34.1472 32.9402 34.119 33.325 34.0798 33.787C34.0481 34.16 33.933 35.1773 34.0827 36.2756L43.991 34.9244ZM34.2857 30.8717C34.1088 31.5352 33.8476 31.8276 33.7436 31.9184C33.6561 31.9948 33.6587 31.96 33.7169 31.96V41.96C38.9267 41.96 42.7054 38.1081 43.9481 33.4483L34.2857 30.8717ZM33.7169 31.96C33.4125 31.96 33.2717 31.9115 33.2481 31.9026C33.2316 31.8963 33.284 31.9154 33.3517 31.9838C33.418 32.0509 33.4394 32.105 33.4373 32.0994C33.4328 32.0875 33.3969 31.9842 33.3969 31.76H23.3969C23.3969 34.3633 24.2541 37.0063 26.2421 39.0162C28.245 41.0411 30.9371 41.96 33.7169 41.96V31.96ZM33.3969 31.76C33.3969 31.2304 33.517 31.0372 33.5484 30.9884C33.5947 30.9162 33.7195 30.7609 34.0644 30.5805C34.8609 30.1639 36.2614 29.9285 37.7656 30.12L39.0281 20.2C36.1324 19.8315 32.5329 20.0961 29.4294 21.7195C26.0154 23.5053 23.3969 26.8991 23.3969 31.76H33.3969ZM43.3442 24.436C43.2196 23.5847 42.9738 22.1015 42.1883 20.776C41.7351 20.0111 41.032 19.1705 39.9712 18.5517C38.9006 17.9272 37.7937 17.72 36.8369 17.72V27.72C36.36 27.72 35.6581 27.6128 34.9325 27.1895C34.2167 26.772 33.7987 26.2338 33.5854 25.874C33.3932 25.5496 33.3447 25.3346 33.3597 25.3899C33.3707 25.431 33.4043 25.5748 33.4496 25.884L43.3442 24.436ZM36.8369 17.72C34.798 17.72 33.3799 18.6903 32.6096 19.3738C32.2548 19.6886 31.9705 20.0015 31.8139 20.1758C31.5957 20.4186 31.5713 20.4512 31.4674 20.5622C31.3386 20.6997 31.439 20.5635 31.6962 20.4273C32.0028 20.265 32.2585 20.24 32.3169 20.24V30.24C33.8153 30.24 35.176 29.9 36.3751 29.2652C37.5248 28.6565 38.3051 27.8903 38.7664 27.3978C38.9574 27.1938 39.2055 26.9114 39.2527 26.8589C39.3614 26.7379 39.3352 26.7751 39.2467 26.8537C39.0089 27.0647 38.1557 27.72 36.8369 27.72V17.72ZM32.3169 20.24C32.6834 20.24 33.2295 20.3912 33.7001 20.8573C34.1618 21.3144 34.4116 21.9461 34.3951 22.5715L24.3986 22.3085C24.2801 26.8111 27.9177 30.24 32.3169 30.24V20.24ZM34.3946 22.5899C34.3864 22.8642 34.2339 23.2626 33.9743 23.5323C33.8153 23.6975 33.8077 23.6148 34.2368 23.4669C34.6408 23.3276 35.2005 23.2103 35.8845 23.1349C36.5512 23.0615 37.2189 23.04 37.7969 23.04V13.04C36.3063 13.04 33.5404 13.1292 30.9769 14.0131C28.3762 14.91 24.5503 17.2494 24.3991 22.2901L34.3946 22.5899ZM37.7969 23.04C40.2256 23.04 40.8683 23.5499 40.8936 23.5708C40.8973 23.5738 40.9195 23.5829 40.9671 23.6886C41.0291 23.8261 41.1269 24.1207 41.1868 24.6662L51.127 23.5738C50.846 21.0175 49.916 18.0519 47.2601 15.8592C44.7054 13.7501 41.3682 13.04 37.7969 13.04V23.04ZM41.192 24.7118L41.912 30.7518L51.8417 29.5682L51.1217 23.5282L41.192 24.7118ZM30.5969 29.56C30.5969 31.3944 31.432 33.3108 33.2292 34.4802C34.8251 35.5187 36.5356 35.553 37.7323 35.3314C40.1842 34.8774 42.1956 33.1461 43.2865 30.9208L34.3073 26.5192C34.3981 26.3339 34.8096 25.7026 35.9114 25.4986C36.4331 25.402 37.5311 25.3488 38.6833 26.0985C40.0368 26.9792 40.5969 28.4056 40.5969 29.56H30.5969ZM43.7763 28.2673L43.6963 27.3873L33.7374 28.2927L33.8174 29.1727L43.7763 28.2673ZM38.9666 22.8462C38.04 22.7999 36.2926 22.7689 34.6113 23.4791C33.6711 23.8762 32.5848 24.5743 31.7557 25.7653C30.9105 26.9795 30.5969 28.3269 30.5969 29.56H40.5969C40.5969 30.0131 40.4733 30.7455 39.963 31.4784C39.469 32.1882 38.8626 32.5388 38.5025 32.6909C38.1731 32.8301 37.9752 32.8383 38.0368 32.8323C38.0805 32.8281 38.2144 32.8211 38.4672 32.8338L38.9666 22.8462ZM60.4528 37L64.43 40.0302L70.5482 32H60.4528V37ZM51.6528 29.68L56.5135 28.5079L56.511 28.4976L56.5085 28.4874L51.6528 29.68ZM50.4528 24.88L45.6056 26.1064L45.6067 26.1108L50.4528 24.88ZM47.9328 19.68L52.6415 17.9983L52.6239 17.949L52.6053 17.9L47.9328 19.68ZM59.0928 19.44L54.1087 19.8387L54.1127 19.8882L54.1176 19.9375L59.0928 19.44ZM58.5328 24.88L63.3872 23.6822L63.3869 23.6808L58.5328 24.88ZM60.0528 31.04L64.9112 29.8582L64.9092 29.8502L64.9072 29.8422L60.0528 31.04ZM62.0128 31.16L66.8635 32.3727L66.9711 31.9425L67.0012 31.5001L62.0128 31.16ZM60.7728 24.68L56.0811 26.4085L56.0842 26.417L56.0874 26.4255L60.7728 24.68ZM64.4928 23.08C64.8858 23.08 64.9388 23.1408 64.8011 23.0831C64.7283 23.0526 64.6262 22.9986 64.5154 22.913C64.4042 22.8271 64.3147 22.7331 64.2494 22.6469C64.1211 22.4779 64.151 22.4283 64.2098 22.6731C64.2705 22.9261 64.3328 23.3726 64.3328 24.08H74.3328C74.3328 21.7551 73.9731 18.9189 72.2163 16.6031C70.2319 13.9873 67.3105 13.08 64.4928 13.08V23.08ZM64.3328 24.08C64.3328 27.2754 63.0448 31.5269 60.6988 34.9233C58.3374 38.342 55.5825 40 52.9728 40V50C60.1231 50 65.5482 45.498 68.9268 40.6067C72.3208 35.6931 74.3328 29.4846 74.3328 24.08H64.3328ZM52.9728 40C52.3784 40 52.6139 39.8465 53.0016 40.2398C53.3483 40.5915 53.3888 40.9548 53.3874 41.0625C53.3865 41.134 53.3763 41.2465 53.2319 41.4223C53.1456 41.5276 52.9896 41.6769 52.7438 41.8017C52.4854 41.933 52.1985 42 51.9328 42V32C46.1316 32 43.4346 37.228 43.3882 40.9375C43.3619 43.0452 44.0548 45.4085 45.8803 47.2602C47.7467 49.1535 50.2872 50 52.9728 50V40ZM51.9328 42C52.08 42 52.2364 42.0139 53.0908 42.344C53.7955 42.6163 55.5183 43.36 57.6128 43.36V33.36C57.7073 33.36 57.7501 33.4237 56.6948 33.016C55.7893 32.6661 54.1057 32 51.9328 32V42ZM57.6128 43.36C60.5529 43.36 62.881 42.0633 64.43 40.0302L56.4757 33.9698C56.5329 33.8946 56.7127 33.6942 57.0326 33.5325C57.1824 33.4568 57.3227 33.4105 57.4376 33.3849C57.5495 33.3601 57.6136 33.36 57.6128 33.36V43.36ZM60.4528 32C58.528 32 57.9969 31.6497 57.846 31.5306C57.6772 31.3973 57.0716 30.8222 56.5135 28.5079L46.7921 30.8521C47.5941 34.1778 48.9685 37.2627 51.6496 39.3794C54.3487 41.5103 57.5376 42 60.4528 42V32ZM56.5085 28.4874C56.2255 27.335 55.923 26.1253 55.692 25.2061C55.5763 24.7459 55.4782 24.3573 55.409 24.0836C55.3744 23.9467 55.3469 23.8385 55.3281 23.7643C55.3187 23.7272 55.3115 23.6986 55.3066 23.6792C55.3041 23.6695 55.3022 23.6621 55.301 23.6571C55.3003 23.6546 55.2998 23.6526 55.2995 23.6513C55.2993 23.6507 55.2992 23.6502 55.2991 23.6498C55.2991 23.6496 55.299 23.6495 55.299 23.6494C55.299 23.6494 55.299 23.6493 55.299 23.6493C55.299 23.6493 55.299 23.6492 50.4528 24.88C45.6067 26.1108 45.6067 26.1108 45.6067 26.1108C45.6067 26.1108 45.6067 26.1108 45.6067 26.1108C45.6067 26.1109 45.6067 26.111 45.6067 26.1111C45.6068 26.1114 45.6069 26.1118 45.6071 26.1123C45.6073 26.1135 45.6078 26.1152 45.6084 26.1175C45.6096 26.1222 45.6113 26.1292 45.6137 26.1385C45.6184 26.1571 45.6255 26.1849 45.6347 26.2212C45.6531 26.2937 45.68 26.4002 45.7141 26.5352C45.7824 26.8052 45.8793 27.1891 45.9937 27.6439C46.2226 28.5547 46.5202 29.745 46.7971 30.8726L56.5085 28.4874ZM55.3001 23.6536C54.7383 21.4331 53.9813 19.9237 53.2438 18.767C52.9821 18.3566 52.5438 17.7339 52.5218 17.7012C52.3919 17.5088 52.5248 17.6714 52.6415 17.9983L43.2241 21.3617C43.5409 22.2486 43.9837 22.9262 44.2326 23.295C44.5893 23.8236 44.5985 23.8084 44.8118 24.143C45.0243 24.4763 45.3274 25.0069 45.6056 26.1064L55.3001 23.6536ZM52.6053 17.9C52.6418 17.9959 52.7345 18.2615 52.7678 18.6645C52.8006 19.0621 52.7906 19.8016 52.4044 20.6456C51.979 21.5751 51.2547 22.2804 50.4379 22.6873C49.7092 23.0503 49.1085 23.08 48.8928 23.08V13.08C47.2885 13.08 44.5874 13.6957 43.3113 16.4844C42.3214 18.6475 42.9591 20.6691 43.2604 21.46L52.6053 17.9ZM48.8928 23.08H57.0528V13.08H48.8928V23.08ZM57.0528 23.08C57.3545 23.08 56.709 23.1555 55.8633 22.6284C55.3688 22.3202 54.8961 21.8598 54.5572 21.2577C54.2324 20.6804 54.1343 20.1584 54.1087 19.8387L64.0769 19.0413C63.9315 17.2237 63.0512 15.3249 61.1523 14.1416C59.6166 13.1845 57.9912 13.08 57.0528 13.08V23.08ZM54.1176 19.9375C54.0332 19.0935 54.277 18.5068 54.255 18.5657C54.2333 18.6235 54.2229 18.6449 54.118 18.9017C54.035 19.1049 53.9145 19.4062 53.7964 19.7629C53.2405 21.4414 53.0322 23.4621 53.6788 26.0792L63.3869 23.6808C63.2739 23.2234 63.2772 23.0052 63.279 22.9597C63.28 22.933 63.2789 22.9383 63.2892 22.9071C63.3011 22.8713 63.3218 22.8145 63.3757 22.6825C63.4077 22.6042 63.5298 22.3134 63.6207 22.0705C63.8236 21.5282 64.2124 20.3865 64.068 18.9425L54.1176 19.9375ZM53.6784 26.0778L55.1984 32.2378L64.9072 29.8422L63.3872 23.6822L53.6784 26.0778ZM55.1945 32.2218C55.7044 34.318 57.6047 37.2049 61.2456 37.0717C64.4193 36.9555 66.3267 34.5201 66.8635 32.3727L57.1621 29.9473C57.419 28.9199 58.5263 27.1645 60.88 27.0783C62.0752 27.0346 63.1507 27.4964 63.8972 28.1985C64.596 28.8557 64.835 29.5451 64.9112 29.8582L55.1945 32.2218ZM67.0012 31.5001C67.1915 28.7102 66.3218 25.2524 65.4582 22.9345L56.0874 26.4255C56.7439 28.1876 57.0742 30.0898 57.0244 30.8199L67.0012 31.5001ZM65.4645 22.9515C65.2711 22.4266 65.2412 22.1118 65.2401 21.9986C65.2391 21.8933 65.2612 22.0575 65.1037 22.3466C65.0258 22.4897 64.9188 22.6339 64.7852 22.763C64.6519 22.8917 64.5197 22.9788 64.413 23.033C64.2033 23.1398 64.1776 23.08 64.4928 23.08V13.08C61.3357 13.08 58.0663 14.3608 56.3219 17.5634C54.7307 20.4847 55.1097 23.7719 56.0811 26.4085L65.4645 22.9515ZM84.9844 32.72C84.6962 32.72 84.3422 32.6535 83.9856 32.4761C83.633 32.3007 83.3775 32.0667 83.2126 31.8547C82.8999 31.4526 82.9844 31.2496 82.9844 31.56H92.9844C92.9844 29.5904 92.4689 27.4674 91.1061 25.7153C89.6647 23.862 87.4768 22.72 84.9844 22.72V32.72ZM82.9844 31.56C82.9844 31.5166 83.0066 31.5286 82.9305 31.5972C82.8441 31.6751 82.0667 32.32 79.5044 32.32V42.32C83.702 42.32 87.1646 41.2449 89.6282 39.0228C92.1022 36.7914 92.9844 33.9234 92.9844 31.56H82.9844ZM79.5044 32.32C77.7445 32.32 76.9547 31.8441 76.5871 31.4718C76.2161 31.0961 75.5444 30.0857 75.5444 27.52H65.5444C65.5444 31.7943 66.6926 35.6839 69.4716 38.4982C72.254 41.3159 75.9442 42.32 79.5044 42.32V32.32ZM75.5444 27.52C75.5444 24.9815 76.2113 24.0018 76.5788 23.6366C76.9561 23.2616 77.7983 22.76 79.7044 22.76V12.76C76.0905 12.76 72.3526 13.7384 69.5299 16.5434C66.6974 19.3582 65.5444 23.2585 65.5444 27.52H75.5444ZM79.7044 22.76C80.4547 22.76 81.0709 22.8179 81.5482 22.9105C82.0353 23.0049 82.2701 23.1146 82.3357 23.1515C82.378 23.1754 82.218 23.0919 82.0629 22.8366C81.8991 22.5668 81.9044 22.3753 81.9044 22.44H91.9044C91.9044 18.7655 90.0053 15.9942 87.2431 14.4385C84.8476 13.0893 82.0413 12.76 79.7044 12.76V22.76ZM81.9044 22.44C81.9044 22.8895 81.795 22.5155 82.2875 22.0113C82.7633 21.5242 83.2939 21.44 83.5044 21.44V31.44C85.4749 31.44 87.7054 30.7758 89.4413 28.9987C91.1937 27.2045 91.9044 24.8305 91.9044 22.44H81.9044ZM83.5044 21.44C83.7929 21.44 84.3126 21.5668 84.768 21.9375C85.093 22.2021 85.153 22.4142 84.9964 22.1158C84.9135 21.9581 84.8577 21.8363 84.7047 21.5213C84.588 21.2809 84.375 20.8447 84.0986 20.4049C83.6226 19.6472 82.0531 17.44 78.9844 17.44V27.44C76.6757 27.44 75.6362 25.7328 75.6314 25.7251C75.5906 25.6603 75.5986 25.6616 75.7095 25.89C75.7841 26.0437 75.9627 26.4219 76.1424 26.7642C76.5107 27.4658 77.2083 28.6779 78.4545 29.6925C79.8311 30.8132 81.5558 31.44 83.5044 31.44V21.44ZM78.9844 17.44C76.8285 17.44 75.3537 18.6123 74.5853 19.5068C73.8404 20.3739 73.4296 21.3204 73.1942 22.0138C72.7113 23.4362 72.5533 25.0309 72.6257 26.471C72.6965 27.8795 73.0153 29.699 73.9761 31.3424C75.0345 33.1527 77.0985 35 80.1844 35V25C80.7256 25 81.314 25.165 81.8227 25.5002C82.2892 25.8077 82.5217 26.146 82.6089 26.2951C82.6943 26.4412 82.6936 26.4935 82.6696 26.3973C82.6479 26.3103 82.6228 26.1634 82.6131 25.969C82.5905 25.5191 82.665 25.2238 82.6633 25.2287C82.6562 25.2497 82.6282 25.3291 82.5652 25.4499C82.5049 25.5655 82.383 25.7758 82.1708 26.0229C81.7576 26.504 80.6902 27.44 78.9844 27.44V17.44ZM80.1844 35C81.8337 35 83.1078 34.4047 83.9299 33.8962C84.6244 33.4667 85.3097 32.8801 85.473 32.7481C86.0641 32.2703 85.675 32.72 84.9844 32.72V22.72C81.9738 22.72 80.0047 24.3097 79.1858 24.9718C78.644 25.4099 78.6669 25.3933 78.6701 25.3913C78.801 25.3103 79.3551 25 80.1844 25V35ZM98.0713 22.72C100.038 22.72 100.966 23.2337 101.396 23.6499C101.793 24.0339 102.471 25.0123 102.471 27.52H112.471C112.471 23.1877 111.249 19.2661 108.346 16.4601C105.477 13.6863 101.705 12.72 98.0713 12.72V22.72ZM102.471 27.52C102.471 30.0277 101.793 31.0061 101.396 31.3901C100.966 31.8063 100.038 32.32 98.0713 32.32V42.32C101.705 42.32 105.477 41.3537 108.346 38.5799C111.249 35.7739 112.471 31.8523 112.471 27.52H102.471ZM98.0713 32.32C96.1039 32.32 95.1588 31.8056 94.7155 31.3796C94.3107 30.9907 93.6313 30.013 93.6313 27.52H83.6313C83.6313 31.867 84.8718 35.7893 87.787 38.5904C90.6637 41.3544 94.4386 42.32 98.0713 42.32V32.32ZM93.6313 27.52C93.6313 25.027 94.3107 24.0493 94.7155 23.6604C95.1588 23.2344 96.1039 22.72 98.0713 22.72V12.72C94.4386 12.72 90.6637 13.6856 87.787 16.4496C84.8718 19.2507 83.6313 23.173 83.6313 27.52H93.6313ZM98.0713 37.64C102.073 37.64 103.833 34.2871 104.37 32.9504C105.062 31.2299 105.311 29.2676 105.311 27.52H95.3113C95.3113 28.4524 95.1604 29.0501 95.0923 29.2196C95.0574 29.3063 95.1504 29.0151 95.5378 28.6373C95.9954 28.1911 96.8733 27.64 98.0713 27.64V37.64ZM105.311 27.52C105.311 25.773 105.062 23.8124 104.363 22.0924C103.807 20.7239 102.034 17.44 98.0713 17.44V27.44C96.9004 27.44 96.0294 26.9094 95.5629 26.4607C95.1677 26.0807 95.0685 25.7821 95.0992 25.8575C95.1602 26.0076 95.3113 26.587 95.3113 27.52H105.311ZM98.0713 17.44C94.1088 17.44 92.3354 20.7239 91.7792 22.0924C91.0802 23.8124 90.8313 25.773 90.8313 27.52H100.831C100.831 26.587 100.982 26.0076 101.043 25.8575C101.074 25.7821 100.975 26.0807 100.58 26.4607C100.113 26.9094 99.2421 27.44 98.0713 27.44V17.44ZM90.8313 27.52C90.8313 29.2676 91.0804 31.2299 91.7723 32.9504C92.3098 34.2871 94.07 37.64 98.0713 37.64V27.64C99.2692 27.64 100.147 28.1911 100.605 28.6373C100.992 29.0151 101.085 29.3063 101.05 29.2196C100.982 29.0501 100.831 28.4524 100.831 27.52H90.8313ZM120.469 35.64L125.447 35.166L125.44 35.0928L125.431 35.0198L120.469 35.64ZM120.549 33.4L125.545 33.5998L115.883 31.6051L120.549 33.4ZM120.389 29.96L124.106 33.3048L125.62 31.622L125.355 29.3735L120.389 29.96ZM119.789 24.88L124.755 24.2935L124.754 24.2841L124.753 24.2747L119.789 24.88ZM118.589 19.44L123.561 18.9073L123.552 18.8199L123.539 18.7329L118.589 19.44ZM127.629 19.44L132.601 18.9073L132.592 18.8199L132.579 18.7329L127.629 19.44ZM127.669 24.88L122.699 25.4255L122.702 25.4514L122.705 25.4772L127.669 24.88ZM128.309 30.2L133.28 29.6545L133.277 29.6286L133.274 29.6028L128.309 30.2ZM129.509 35.64L124.538 36.1727L124.547 36.2601L124.56 36.3471L129.509 35.64ZM122.189 32C122.531 32 123.307 32.0923 124.1 32.7242C124.958 33.4079 125.37 34.3568 125.447 35.166L115.492 36.114C115.649 37.7632 116.421 39.3921 117.869 40.5458C119.252 41.6477 120.848 42 122.189 42V32ZM125.431 35.0198C125.453 35.1948 125.433 35.2763 125.452 35.0062C125.457 34.9423 125.462 34.8707 125.47 34.7761C125.477 34.6873 125.486 34.5747 125.495 34.4584C125.513 34.2189 125.532 33.9302 125.545 33.5998L115.553 33.2002C115.537 33.6048 115.514 33.7747 115.477 34.3038C115.446 34.7437 115.406 35.4452 115.508 36.2602L125.431 35.0198ZM115.883 31.6051C115.91 31.5346 115.93 31.4875 115.941 31.4647C115.952 31.4391 115.96 31.4244 115.962 31.4193C115.967 31.4098 115.96 31.424 115.941 31.4536C115.9 31.517 115.833 31.6032 115.744 31.6835C115.662 31.7579 115.563 31.8255 115.433 31.8784C115.31 31.9282 115.075 32 114.669 32V42C121.863 42 124.694 36.5523 125.216 35.1949L115.883 31.6051ZM114.669 32C114.293 32 114.125 31.9434 114.102 31.9352C114.094 31.9322 114.179 31.966 114.277 32.0676C114.373 32.1665 114.392 32.2371 114.379 32.1992C114.362 32.149 114.309 31.9648 114.309 31.6H104.309C104.309 34.1822 105.053 36.9159 107.092 39.0224C109.156 41.1554 111.924 42 114.669 42V32ZM114.309 31.6V24.88H104.309V31.6H114.309ZM114.309 24.88C114.309 22.9203 114.139 21.5538 113.956 20.4984C113.914 20.2525 113.872 20.0319 113.839 19.8583C113.804 19.6709 113.782 19.5575 113.765 19.4564C113.732 19.2612 113.749 19.3062 113.749 19.44H103.749C103.749 20.1338 103.837 20.7288 103.909 21.1461C103.944 21.3512 103.984 21.5597 104.014 21.7189C104.047 21.8919 104.075 22.0425 104.102 22.2016C104.2 22.7662 104.309 23.5597 104.309 24.88H114.309ZM113.749 19.44C113.749 20.1839 113.461 21.3086 112.472 22.1859C111.561 22.9939 110.63 23.08 110.309 23.08V13.08C108.988 13.08 107.278 13.4261 105.837 14.7041C104.318 16.0514 103.749 17.8561 103.749 19.44H113.749ZM110.309 23.08H116.189V13.08H110.309V23.08ZM116.189 23.08C115.804 23.08 114.915 22.9721 114.047 22.2165C113.098 21.3906 112.749 20.2878 112.749 19.44H122.749C122.749 17.7522 122.101 15.9694 120.612 14.6735C119.204 13.4479 117.535 13.08 116.189 13.08V23.08ZM112.749 19.44C112.749 19.2767 112.773 19.2094 112.738 19.398C112.72 19.4957 112.698 19.6061 112.659 19.7944C112.624 19.968 112.579 20.1909 112.533 20.4396C112.335 21.5108 112.149 22.8973 112.149 24.88H122.149C122.149 23.5827 122.264 22.8092 122.366 22.2604C122.395 22.1041 122.425 21.9558 122.46 21.7828C122.492 21.6245 122.535 21.413 122.573 21.2045C122.651 20.7806 122.749 20.1633 122.749 19.44H112.749ZM112.149 24.88V29.04H122.149V24.88H112.149ZM112.149 29.04C112.149 30.251 112.371 31.8877 113.377 33.3754C114.542 35.0981 116.44 36.12 118.549 36.12V26.12C119.067 26.12 119.689 26.2371 120.31 26.5675C120.929 26.8974 121.373 27.3474 121.662 27.7746C122.187 28.5523 122.149 29.149 122.149 29.04H112.149ZM118.549 36.12C120.535 36.12 121.983 35.1488 122.575 34.7122C123.296 34.1796 123.836 33.6041 124.106 33.3048L116.673 26.6152C116.582 26.7159 116.563 26.7204 116.634 26.6678C116.677 26.636 116.832 26.5245 117.095 26.4102C117.353 26.298 117.859 26.12 118.549 26.12V36.12ZM125.355 29.3735L124.755 24.2935L114.824 25.4665L115.424 30.5465L125.355 29.3735ZM124.753 24.2747C124.515 22.3264 124.183 20.9808 123.886 19.9568C123.817 19.7181 123.751 19.5018 123.7 19.3329C123.644 19.1513 123.61 19.0363 123.581 18.9367C123.526 18.7398 123.547 18.7767 123.561 18.9073L113.618 19.9727C113.692 20.6633 113.843 21.2502 113.961 21.6658C114.02 21.8725 114.083 22.0794 114.133 22.2443C114.187 22.4219 114.234 22.5769 114.282 22.7432C114.455 23.3392 114.664 24.1536 114.826 25.4853L124.753 24.2747ZM123.539 18.7329C123.649 19.5036 123.518 20.8915 122.367 22.0176C121.35 23.0142 120.261 23.08 119.989 23.08V13.08C118.717 13.08 116.869 13.4058 115.371 14.8724C113.741 16.4685 113.41 18.5364 113.64 20.1471L123.539 18.7329ZM119.989 23.08H125.909V13.08H119.989V23.08ZM125.909 23.08C125.493 23.08 124.727 22.9596 123.969 22.3558C123.174 21.7228 122.783 20.8686 122.68 20.1471L132.579 18.7329C132.356 17.1714 131.584 15.6372 130.2 14.5342C128.852 13.4604 127.286 13.08 125.909 13.08V23.08ZM122.658 19.9727C122.645 19.8486 122.657 19.8054 122.645 19.9957C122.639 20.0965 122.63 20.2088 122.615 20.3975C122.601 20.5721 122.584 20.7941 122.569 21.0419C122.503 22.107 122.485 23.4741 122.699 25.4255L132.64 24.3345C132.494 23.0059 132.516 22.213 132.55 21.6581C132.56 21.5009 132.571 21.3517 132.585 21.1796C132.597 21.0219 132.614 20.8123 132.626 20.6068C132.652 20.1846 132.674 19.5914 132.601 18.9073L122.658 19.9727ZM122.705 25.4772L123.345 30.7972L133.274 29.6028L132.634 24.2828L122.705 25.4772ZM123.339 30.7455C123.556 32.7242 123.894 34.0987 124.205 35.1504C124.278 35.3956 124.347 35.6157 124.401 35.7884C124.46 35.975 124.495 36.0883 124.525 36.1885C124.583 36.3868 124.555 36.3304 124.538 36.1727L134.481 35.1073C134.404 34.3896 134.241 33.7832 134.119 33.369C134.058 33.163 133.993 32.9544 133.943 32.7944C133.888 32.6205 133.841 32.4694 133.793 32.3096C133.625 31.7413 133.422 30.9558 133.28 29.6545L123.339 30.7455ZM124.56 36.3471C124.45 35.5764 124.581 34.1885 125.731 33.0624C126.749 32.0658 127.837 32 128.109 32V42C129.381 42 131.23 41.6742 132.727 40.2076C134.358 38.6115 134.689 36.5436 134.459 34.9329L124.56 36.3471ZM128.109 32H122.189V42H128.109V32ZM139.181 25.32L135.418 22.0275L134.181 23.4413V25.32H139.181ZM132.341 19.4L134.163 24.0562L134.208 24.0386L134.252 24.0201L132.341 19.4ZM139.181 21.64H134.181V35.1563L142.977 24.894L139.181 21.64ZM146.061 23.48V30.2H156.061V23.48H146.061ZM146.061 30.2C146.061 32.1827 146.246 33.5692 146.444 34.6404C146.49 34.8891 146.535 35.112 146.571 35.2856C146.609 35.4739 146.631 35.5843 146.649 35.682C146.684 35.8706 146.661 35.8033 146.661 35.64H156.661C156.661 34.9167 156.562 34.2994 156.485 33.8755C156.446 33.667 156.403 33.4555 156.371 33.2972C156.336 33.1242 156.306 32.9759 156.277 32.8196C156.175 32.2708 156.061 31.4973 156.061 30.2H146.061ZM146.661 35.64C146.661 34.7922 147.009 33.6894 147.958 32.8635C148.826 32.1079 149.715 32 150.101 32V42C151.446 42 153.115 41.6321 154.523 40.4065C156.012 39.1106 156.661 37.3278 156.661 35.64H146.661ZM150.101 32H144.221V42H150.101V32ZM144.221 32C144.542 32 145.472 32.0861 146.383 32.8941C147.372 33.7714 147.661 34.8961 147.661 35.64H137.661C137.661 37.2239 138.229 39.0286 139.748 40.3759C141.189 41.6539 142.9 42 144.221 42V32ZM147.661 35.64C147.661 35.7738 147.643 35.8188 147.676 35.6236C147.694 35.5225 147.715 35.4091 147.751 35.2217C147.783 35.0481 147.825 34.8275 147.868 34.5816C148.05 33.5262 148.221 32.1597 148.221 30.2H138.221C138.221 31.5203 138.111 32.3138 138.014 32.8784C137.986 33.0375 137.958 33.1881 137.925 33.3611C137.895 33.5203 137.855 33.7288 137.82 33.9339C137.748 34.3512 137.661 34.9462 137.661 35.64H147.661ZM148.221 30.2V26.32H138.221V30.2H148.221ZM148.221 26.32C148.221 25.277 148.125 23.4762 147.084 21.8406C145.716 19.6915 143.53 18.96 141.701 18.96V28.96C141.428 28.96 140.873 28.9156 140.222 28.6019C139.524 28.2653 138.992 27.7509 138.647 27.2094C138.338 26.7226 138.249 26.3266 138.227 26.2162C138.205 26.1005 138.221 26.1121 138.221 26.32H148.221ZM141.701 18.96C139.697 18.96 138.153 19.7997 137.301 20.3741C136.4 20.9812 135.753 21.6446 135.418 22.0275L142.944 28.6125C142.899 28.6639 142.888 28.6717 142.9 28.6601C142.912 28.6492 142.912 28.6512 142.891 28.6659C142.873 28.6778 142.781 28.739 142.611 28.8034C142.438 28.8689 142.124 28.96 141.701 28.96V18.96ZM134.181 25.32V30.2H144.181V25.32H134.181ZM134.181 30.2C134.181 32.1827 134.366 33.5692 134.564 34.6404C134.61 34.8891 134.655 35.112 134.691 35.2856C134.729 35.4739 134.751 35.5843 134.769 35.682C134.804 35.8706 134.781 35.8033 134.781 35.64H144.781C144.781 34.9167 144.682 34.2994 144.605 33.8755C144.566 33.667 144.523 33.4555 144.491 33.2972C144.456 33.1242 144.426 32.9759 144.397 32.8196C144.295 32.2708 144.181 31.4973 144.181 30.2H134.181ZM134.781 35.64C134.781 34.7922 135.129 33.6894 136.078 32.8635C136.946 32.1079 137.835 32 138.221 32V42C139.566 42 141.235 41.6321 142.643 40.4065C144.132 39.1106 144.781 37.3278 144.781 35.64H134.781ZM138.221 32H132.341V42H138.221V32ZM132.341 32C132.662 32 133.592 32.0861 134.503 32.8941C135.492 33.7714 135.781 34.8961 135.781 35.64H125.781C125.781 37.2239 126.349 39.0286 127.868 40.3759C129.309 41.6539 131.02 42 132.341 42V32ZM135.781 35.64C135.781 35.7738 135.763 35.8188 135.796 35.6236C135.814 35.5225 135.835 35.4091 135.871 35.2217C135.903 35.0481 135.945 34.8275 135.988 34.5816C136.17 33.5262 136.341 32.1597 136.341 30.2H126.341C126.341 31.5203 126.231 32.3138 126.134 32.8784C126.106 33.0375 126.078 33.1881 126.045 33.3611C126.015 33.5203 125.975 33.7288 125.94 33.9339C125.868 34.3512 125.781 34.9462 125.781 35.64H135.781ZM136.341 30.2V26.16H126.341V30.2H136.341ZM136.341 26.16C136.341 24.2123 136.168 22.9049 135.97 21.877C135.925 21.643 135.881 21.4357 135.848 21.2822C135.812 21.1125 135.794 21.0279 135.78 20.9551C135.758 20.8396 135.781 20.9245 135.781 21.08H125.781C125.781 21.7955 125.873 22.3904 125.956 22.8262C125.995 23.029 126.038 23.2304 126.068 23.3683C126.101 23.5224 126.127 23.6445 126.151 23.773C126.233 24.1951 126.341 24.8677 126.341 26.16H136.341ZM135.781 21.08C135.781 21.5261 135.691 22.0295 135.47 22.5303C135.254 23.022 134.967 23.3841 134.719 23.6278C134.287 24.0512 133.949 24.1399 134.163 24.0562L130.519 14.7438C129.812 15.0201 128.694 15.5288 127.713 16.4922C126.574 17.6101 125.781 19.1918 125.781 21.08H135.781ZM134.252 24.0201C134.956 23.7288 135.456 23.5071 136.047 23.3147C136.625 23.1268 136.975 23.08 137.141 23.08V13.08C134.121 13.08 131.233 14.4474 130.429 14.7799L134.252 24.0201ZM137.141 23.08C137.503 23.08 136.15 23.1937 135.006 21.9035C134.482 21.3136 134.289 20.7318 134.221 20.4534C134.162 20.2062 134.181 20.1154 134.181 20.32H144.181C144.181 19.3183 144.107 17.0938 142.486 15.2665C140.711 13.2663 138.338 13.08 137.141 13.08V23.08ZM134.181 20.32V21.64H144.181V20.32H134.181ZM142.977 24.894C143.049 24.8101 143.498 24.3011 144.211 23.8357C144.916 23.3745 145.686 23.08 146.501 23.08V13.08C140.015 13.08 135.999 17.6694 135.384 18.386L142.977 24.894ZM146.501 23.08C146.889 23.08 146.92 23.1399 146.753 23.0701C146.665 23.0333 146.545 22.9696 146.415 22.8694C146.285 22.7687 146.177 22.6556 146.093 22.5452C145.93 22.3282 145.931 22.215 145.97 22.3801C146.011 22.554 146.061 22.899 146.061 23.48H156.061C156.061 21.4693 155.773 18.7723 154.078 16.5248C152.15 13.9682 149.282 13.08 146.501 13.08V23.08ZM162.34 21.08V16.08H157.34V21.08H162.34ZM154.5 31.56L159.478 31.0933L159.474 31.0505L159.47 31.0078L154.5 31.56ZM157.46 21.08L161.298 24.2851L168.151 16.08H157.46V21.08ZM152.42 19.6H147.42V19.7041L147.425 19.8082L152.42 19.6ZM162.34 18.08H157.34V23.08H162.34V18.08ZM157.34 21.08V27.8H167.34V21.08H157.34ZM157.34 27.8C157.34 29.8149 158.033 31.5986 159.328 32.9768C160.384 34.1015 161.676 34.7248 162.054 34.9214C162.738 35.277 162.459 35.1821 162.171 34.8864C161.612 34.3145 161.38 33.568 161.38 33.08H171.38C171.38 31.032 170.643 29.2505 169.328 27.9023C168.282 26.8304 166.992 26.218 166.666 26.0486C166.035 25.7202 166.316 25.811 166.616 26.1295C167.153 26.7014 167.34 27.4051 167.34 27.8H157.34ZM161.38 33.08C161.38 32.6611 161.52 32.2618 161.713 31.9747C161.878 31.7271 162.011 31.6656 161.944 31.7061C161.881 31.7442 161.716 31.8252 161.442 31.8943C161.174 31.9621 160.874 32 160.58 32V42C162.717 42 165.099 41.4838 167.117 40.2639C169.182 39.0154 171.38 36.6341 171.38 33.08H161.38ZM160.58 32C159.453 32 159.371 31.7445 159.582 31.9263C159.681 32.0106 159.698 32.0733 159.668 32.0051C159.627 31.9138 159.53 31.6426 159.478 31.0933L149.522 32.0267C149.78 34.7719 150.755 37.5278 153.068 39.5137C155.33 41.4555 158.108 42 160.58 42V32ZM159.47 31.0078C159.301 29.4897 159.504 26.4337 161.298 24.2851L153.623 17.8749C149.337 23.0063 149.22 29.3103 149.531 32.1122L159.47 31.0078ZM157.46 16.08H153.82V26.08H157.46V16.08ZM153.82 16.08C154.391 16.08 155.512 16.2795 156.448 17.2754C157.309 18.1908 157.406 19.1416 157.416 19.3918L147.425 19.8082C147.475 21.0184 147.832 22.7092 149.162 24.1245C150.568 25.6205 152.37 26.08 153.82 26.08V16.08ZM157.42 19.6C157.42 20.2962 157.214 20.7505 157.145 20.8871C157.072 21.0319 157.043 21.0377 157.153 20.9122C157.381 20.6519 157.834 20.248 158.493 19.7971C159.131 19.3608 159.798 18.9928 160.333 18.7535C160.6 18.6341 160.776 18.5733 160.854 18.5501C160.992 18.5091 160.762 18.6 160.3 18.6V8.6C158.704 8.6 157.147 9.2241 156.252 9.62398C155.138 10.1222 153.95 10.7892 152.848 11.5429C151.767 12.282 150.595 13.2231 149.633 14.3203C148.82 15.2476 147.42 17.1076 147.42 19.6H157.42ZM160.3 18.6C160.601 18.6 159.317 18.6959 158.2 17.4738C157.682 16.9068 157.473 16.3363 157.394 16.0293C157.323 15.7557 157.34 15.6356 157.34 15.8H167.34C167.34 14.7217 167.225 12.5247 165.58 10.7262C163.823 8.80413 161.52 8.6 160.3 8.6V18.6ZM157.34 15.8V18.08H167.34V15.8H157.34ZM162.34 23.08H164.98V13.08H162.34V23.08ZM164.98 23.08C163.634 23.08 162.768 22.4512 162.352 22.0279C161.872 21.539 161.38 20.7118 161.38 19.6H171.38C171.38 17.6482 170.508 16.061 169.488 15.022C168.533 14.0488 166.967 13.08 164.98 13.08V23.08ZM161.38 19.6C161.38 19.0399 161.549 18.1677 162.254 17.3574C163.04 16.4544 164.106 16.08 164.98 16.08V26.08C166.774 26.08 168.541 25.3656 169.797 23.9226C170.972 22.5723 171.38 20.9601 171.38 19.6H161.38ZM164.98 16.08H162.34V26.08H164.98V16.08ZM174.656 26.84V21.84H169.319L169.666 27.1654L174.656 26.84ZM174.856 24.16L169.992 23.0019L168.525 29.16H174.856V24.16ZM178.656 24.16V29.16H184.986L183.52 23.0019L178.656 24.16ZM182.056 32.68C181.747 32.68 181.383 32.6069 181.026 32.4264C180.676 32.2491 180.429 32.0172 180.273 31.8156C179.979 31.4349 180.056 31.2462 180.056 31.52H190.056C190.056 29.5538 189.532 27.4451 188.188 25.7044C186.771 23.8681 184.591 22.68 182.056 22.68V32.68ZM180.056 31.52C180.056 31.4829 180.073 31.5124 179.986 31.5916C179.897 31.6728 179.123 32.32 176.576 32.32V42.32C180.788 42.32 184.255 41.2272 186.715 38.9884C189.178 36.7476 190.056 33.8771 190.056 31.52H180.056ZM176.576 32.32C174.816 32.32 174.026 31.8441 173.658 31.4718C173.287 31.0961 172.616 30.0857 172.616 27.52H162.616C162.616 31.7943 163.764 35.6839 166.543 38.4982C169.325 41.3159 173.015 42.32 176.576 42.32V32.32ZM172.616 27.52C172.616 24.9537 173.287 23.9818 173.644 23.6271C174.014 23.2606 174.853 22.76 176.776 22.76V12.76C173.179 12.76 169.437 13.7194 166.607 16.5229C163.765 19.3382 162.616 23.2463 162.616 27.52H172.616ZM176.776 22.76C177.743 22.76 178.342 23.1082 178.715 23.4898C179.151 23.936 179.296 24.4417 179.296 24.72H189.296C189.296 18.7471 184.324 12.76 176.776 12.76V22.76ZM179.296 24.72C179.296 24.2215 179.469 23.3858 180.19 22.6645C180.939 21.9152 181.725 21.84 181.896 21.84V31.84C183.746 31.84 185.732 31.2648 187.261 29.7355C188.762 28.2342 189.296 26.3385 189.296 24.72H179.296ZM181.896 21.84H174.656V31.84H181.896V21.84ZM169.666 27.1654C169.761 28.6253 170.151 30.503 171.388 32.1327C172.792 33.983 174.909 35 177.256 35V25C177.503 25 177.901 25.0525 178.347 25.2698C178.797 25.4889 179.133 25.7961 179.353 26.0873C179.74 26.597 179.67 26.8947 179.645 26.5146L169.666 27.1654ZM177.256 35C178.927 35 180.213 34.3862 181.034 33.8693C181.729 33.4321 182.414 32.8355 182.577 32.7012C183.177 32.2077 182.776 32.68 182.056 32.68V22.68C179.015 22.68 177.034 24.3123 176.224 24.9788C175.682 25.4245 175.705 25.4079 175.708 25.4057C175.838 25.3238 176.404 25 177.256 25V35ZM176.816 17.44C172.748 17.44 170.531 20.7344 169.992 23.0019L179.72 25.3181C179.597 25.8331 179.349 26.2568 178.991 26.5994C178.601 26.9712 177.857 27.44 176.816 27.44V17.44ZM174.856 29.16H178.656V19.16H174.856V29.16ZM183.52 23.0019C183.065 21.0931 181.119 17.44 176.816 17.44V27.44C175.654 27.44 174.836 26.8832 174.43 26.4649C174.062 26.0849 173.88 25.688 173.792 25.3181L183.52 23.0019ZM194.728 26.88V21.88H189.728V26.88H194.728ZM187.888 19.4L189.709 24.0562L189.755 24.0386L189.799 24.0201L187.888 19.4ZM194.728 23.24H189.728V29.5253L195.852 28.112L194.728 23.24ZM199.288 23.08C199.348 23.08 199.184 23.0886 198.909 22.9581C198.626 22.8235 198.39 22.6187 198.23 22.4063C198.083 22.2126 198.042 22.0713 198.037 22.0546C198.033 22.039 198.048 22.0885 198.048 22.2H208.048C208.048 20.5053 207.656 18.2912 206.205 16.3737C204.592 14.2405 202.119 13.08 199.288 13.08V23.08ZM198.048 22.2C198.048 22.2301 198.044 22.153 198.091 22.0083C198.14 21.8589 198.221 21.7067 198.323 21.5749C198.52 21.3201 198.649 21.3264 198.389 21.4337C198.124 21.5429 197.667 21.6688 196.975 21.7578C196.301 21.8446 195.539 21.88 194.728 21.88V31.88C196.723 31.88 199.638 31.7371 202.206 30.6763C203.556 30.1186 205.06 29.2074 206.23 27.6963C207.452 26.1177 208.048 24.2201 208.048 22.2H198.048ZM189.728 26.88V30.2H199.728V26.88H189.728ZM189.728 30.2C189.728 32.1827 189.913 33.5692 190.111 34.6404C190.157 34.8891 190.202 35.112 190.237 35.2856C190.276 35.4739 190.298 35.5843 190.316 35.682C190.351 35.8706 190.328 35.8033 190.328 35.64H200.328C200.328 34.9167 200.229 34.2994 200.151 33.8755C200.113 33.667 200.07 33.4555 200.038 33.2972C200.003 33.1242 199.973 32.9759 199.944 32.8196C199.842 32.2708 199.728 31.4973 199.728 30.2H189.728ZM190.328 35.64C190.328 34.7922 190.676 33.6894 191.625 32.8635C192.493 32.1079 193.382 32 193.768 32V42C195.113 42 196.782 41.6321 198.19 40.4065C199.679 39.1106 200.328 37.3278 200.328 35.64H190.328ZM193.768 32H187.888V42H193.768V32ZM187.888 32C188.209 32 189.139 32.0861 190.05 32.8941C191.039 33.7714 191.328 34.8961 191.328 35.64H181.328C181.328 37.2239 181.896 39.0286 183.415 40.3759C184.856 41.6539 186.566 42 187.888 42V32ZM191.328 35.64C191.328 35.7738 191.31 35.8188 191.343 35.6236C191.36 35.5225 191.382 35.4091 191.417 35.2217C191.45 35.0481 191.492 34.8275 191.534 34.5816C191.717 33.5262 191.888 32.1597 191.888 30.2H181.888C181.888 31.5203 181.778 32.3138 181.681 32.8784C181.653 33.0375 181.625 33.1881 181.592 33.3611C181.562 33.5203 181.522 33.7288 181.487 33.9339C181.415 34.3512 181.328 34.9462 181.328 35.64H191.328ZM191.888 30.2V26.16H181.888V30.2H191.888ZM191.888 26.16C191.888 24.2123 191.715 22.9049 191.517 21.877C191.472 21.643 191.427 21.4357 191.395 21.2822C191.358 21.1125 191.341 21.0279 191.327 20.9551C191.305 20.8396 191.328 20.9245 191.328 21.08H181.328C181.328 21.7955 181.42 22.3904 181.503 22.8262C181.542 23.029 181.585 23.2304 181.615 23.3683C181.648 23.5224 181.673 23.6445 181.698 23.773C181.78 24.1951 181.888 24.8677 181.888 26.16H191.888ZM191.328 21.08C191.328 21.5261 191.238 22.0295 191.017 22.5303C190.8 23.022 190.514 23.3841 190.265 23.6278C189.834 24.0512 189.496 24.1399 189.709 24.0562L186.066 14.7438C185.359 15.0201 184.241 15.5288 183.26 16.4922C182.121 17.6101 181.328 19.1918 181.328 21.08H191.328ZM189.799 24.0201C190.503 23.7288 191.003 23.5071 191.594 23.3147C192.172 23.1268 192.521 23.08 192.688 23.08V13.08C189.668 13.08 186.779 14.4474 185.976 14.7799L189.799 24.0201ZM192.688 23.08C193.05 23.08 191.697 23.1937 190.553 21.9035C190.029 21.3136 189.836 20.7318 189.768 20.4534C189.708 20.2062 189.728 20.1154 189.728 20.32H199.728C199.728 19.3183 199.654 17.0938 198.032 15.2665C196.258 13.2663 193.885 13.08 192.688 13.08V23.08ZM189.728 20.32V23.24H199.728V20.32H189.728ZM195.852 28.112C197.722 27.6804 198.749 26.4125 199.092 25.957C199.514 25.3962 199.8 24.8249 199.955 24.5047C200.122 24.1588 200.291 23.7678 200.4 23.52C200.529 23.2285 200.63 23.0057 200.73 22.8061C200.956 22.3535 201.024 22.3431 200.885 22.475C200.635 22.7129 200.052 23.08 199.288 23.08V13.08C197.003 13.08 195.22 14.0621 193.992 15.23C192.876 16.2919 192.189 17.5265 191.785 18.3339C191.57 18.7643 191.387 19.1752 191.251 19.4838C191.096 19.8359 191.02 20.0111 190.948 20.1603C190.863 20.3351 190.918 20.1875 191.103 19.9418C191.209 19.8012 191.993 18.7396 193.603 18.368L195.852 28.112Z" fill="white" mask="url(#path-1-outside-1_38_494)"/>
</svg>
